<?xml version="1.0" standalone="no"?>
<!DOCTYPE svg PUBLIC "-//W3C//DTD SVG 20010904//EN"
 "http://www.w3.org/TR/2001/REC-SVG-20010904/DTD/svg10.dtd">
<svg version="1.0" xmlns="http://www.w3.org/2000/svg"
 width="956.000000pt" height="956.000000pt" viewBox="0 0 956.000000 956.000000"
 preserveAspectRatio="xMidYMid meet">
<metadata>
Created by potrace 1.11, written by Peter Selinger 2001-2013
</metadata>
<g transform="translate(0.000000,956.000000) scale(0.100000,-0.100000)"
fill="#000000" stroke="none">
<path d="M547 9064 c-1 -1 -72 -5 -157 -8 -274 -12 -291 -15 -315 -64 -18 -39
-21 -52 -31 -122 -20 -142 -28 -442 -27 -1025 1 -479 3 -637 16 -1027 2 -42 6
-80 10 -84 3 -4 2 -14 -3 -24 -5 -10 -7 -20 -5 -22 3 -3 8 -38 11 -79 12 -174
21 -229 40 -236 10 -3 11 -30 7 -116 -4 -62 -7 -165 -7 -229 -1 -65 -3 -118
-6 -118 -8 0 -5 -1134 3 -1147 4 -6 4 -14 0 -16 -6 -4 -9 -112 -3 -112 0 0 3
-81 5 -180 5 -234 12 -384 21 -465 9 -81 9 -157 -2 -330 -11 -175 -11 -1779
-1 -2020 12 -274 13 -282 29 -320 21 -49 150 -167 423 -385 27 -22 38 -39 40
-63 3 -35 8 -44 28 -48 77 -16 145 -25 242 -30 265 -14 520 -23 846 -28 108
-2 201 -6 207 -10 6 -3 13 -2 16 3 6 9 60 6 77 -4 5 -4 9 -3 9 2 0 10 123 9
139 -1 6 -4 11 -3 11 1 0 10 41 10 57 0 5 -4 13 -4 17 0 9 10 56 10 56 0 0 -4
5 -5 11 -2 16 10 79 12 79 2 0 -4 9 -3 20 3 14 8 20 8 20 0 0 -6 5 -8 12 -4 6
4 95 8 197 10 348 4 587 21 674 46 31 9 39 17 47 50 28 102 29 937 5 2313 -2
121 0 236 5 256 28 102 43 533 43 1194 0 583 -10 949 -36 1245 -5 59 -28 106
-50 102 -14 -2 -16 5 -11 60 14 186 18 389 17 1048 0 776 -10 1272 -27 1397
-3 20 0 36 10 43 20 18 17 51 -9 80 -49 55 -299 226 -482 330 -120 67 -164 89
-195 95 -64 11 -319 23 -632 29 -102 2 -191 7 -196 10 -6 3 -13 2 -17 -4 -4
-7 -12 -7 -25 0 -13 7 -21 7 -25 0 -4 -6 -12 -7 -18 -3 -10 6 -1164 13 -1170
7z"/>
<path d="M7259 7486 c-13 -6 -28 -21 -34 -32 -8 -16 -13 -857 -6 -966 2 -26
42 -59 68 -55 33 4 63 32 64 59 0 13 1 233 1 491 1 428 0 469 -16 486 -23 25
-49 31 -77 17z"/>
<path d="M6014 7427 c-10 -6 -22 -15 -26 -21 -10 -15 -10 -78 0 -94 11 -16 59
-28 95 -24 47 6 71 92 35 128 -18 18 -79 25 -104 11z"/>
<path d="M4713 7199 c-29 -4 -61 -10 -70 -15 -10 -4 -20 -8 -23 -9 -37 -13
-50 -21 -96 -62 -63 -57 -105 -133 -121 -218 -7 -37 -7 -153 0 -180 3 -11 9
-33 13 -50 27 -110 161 -223 284 -240 97 -14 222 7 263 42 9 9 17 12 17 8 0
-5 18 9 40 30 47 45 54 91 19 113 -22 14 -79 7 -79 -9 0 -5 -7 -9 -15 -9 -8 0
-15 -4 -15 -9 0 -17 -93 -45 -149 -45 -71 1 -124 18 -166 56 -46 39 -72 84
-79 133 l-6 41 264 0 c247 0 266 1 286 19 18 16 21 27 17 80 -15 193 -198 348
-384 324z m112 -140 c5 -5 16 -9 25 -9 17 0 71 -52 88 -86 6 -11 13 -33 16
-47 l5 -27 -214 0 -214 0 9 32 c22 74 87 135 160 148 41 8 111 2 125 -11z"/>
<path d="M5577 7203 c-1 -1 -25 -4 -52 -7 -180 -21 -315 -193 -309 -393 3 -96
19 -154 62 -222 37 -60 57 -79 117 -116 67 -40 180 -57 270 -39 17 3 35 7 40
8 22 4 82 31 108 49 54 37 57 96 6 118 -25 10 -35 9 -64 -7 -19 -10 -35 -22
-35 -26 0 -10 -89 -23 -142 -20 -89 5 -155 50 -200 134 -18 34 -23 59 -23 123
0 44 4 89 9 100 5 11 10 23 10 27 3 26 77 100 119 118 48 21 167 33 167 17 0
-4 4 -6 9 -2 5 3 25 -4 43 -15 72 -43 78 -45 106 -29 63 35 28 119 -61 152
-56 20 -171 40 -180 30z"/>
<path d="M6629 7206 c-2 -2 -28 -7 -57 -10 -128 -15 -234 -113 -276 -256 -9
-30 -16 -56 -16 -57 0 -2 0 -4 -1 -5 -4 -13 -3 -131 1 -133 3 -2 7 -17 8 -34
6 -82 85 -199 168 -247 57 -34 77 -38 169 -39 89 0 147 21 204 75 17 17 32 30
34 30 1 0 4 -15 5 -32 2 -18 8 -39 15 -46 34 -33 103 -17 114 27 3 14 7 165 7
336 1 329 -2 358 -46 374 -12 4 -31 6 -43 3 -25 -4 -54 -48 -50 -74 4 -25 -1
-23 -48 17 -22 19 -48 35 -57 35 -9 0 -20 4 -25 9 -6 5 -27 12 -49 15 -21 4
-42 8 -46 11 -4 2 -9 3 -11 1z m111 -156 c83 -42 125 -122 124 -235 -1 -113
-18 -161 -80 -215 -59 -52 -127 -67 -208 -47 -62 16 -138 98 -154 166 -28 120
-3 227 68 296 22 21 40 35 40 30 0 -6 4 -4 9 3 4 8 26 16 47 19 22 3 41 7 43
9 8 7 77 -9 111 -26z"/>
<path d="M3855 7186 c-55 -17 -80 -32 -125 -73 -34 -30 -39 -32 -35 -13 10 49
-37 96 -85 85 -52 -11 -53 -24 -52 -532 0 -440 1 -466 18 -483 37 -36 97 -26
111 18 5 15 9 97 9 183 l-1 155 49 -37 c65 -50 134 -70 218 -65 139 8 248 99
302 250 4 11 9 42 12 70 4 28 7 61 9 74 1 12 -1 22 -6 22 -5 0 -6 7 -2 15 6
17 -12 91 -37 146 -62 141 -243 228 -385 185z m185 -151 c39 -27 87 -90 97
-128 19 -70 5 -237 -19 -237 -5 0 -8 -7 -8 -15 0 -8 -4 -15 -9 -15 -5 0 -12
-8 -16 -18 -3 -11 -30 -31 -60 -46 -119 -61 -244 -21 -308 99 -32 58 -31 200
0 266 24 51 81 104 128 119 55 17 151 5 195 -25z"/>
<path d="M6010 7170 c-19 -19 -20 -33 -20 -354 0 -321 1 -334 21 -359 15 -20
27 -26 50 -23 65 8 64 2 65 369 1 321 -2 361 -30 379 -21 14 -66 8 -86 -12z"/>
<path d="M4143 4920 c-12 -5 -26 -17 -32 -28 -5 -10 -10 -91 -10 -183 0 -90 0
-167 0 -171 -1 -5 -21 7 -45 26 -103 78 -235 93 -343 37 -129 -65 -206 -211
-199 -376 7 -149 72 -265 186 -333 47 -28 91 -37 170 -36 78 2 140 27 193 78
l37 37 0 -29 c0 -44 30 -75 70 -74 54 1 65 21 66 120 0 49 4 93 8 100 4 7 4
12 -1 12 -4 0 -8 31 -8 70 0 38 4 70 9 70 5 0 4 6 -1 13 -5 6 -7 44 -5 82 1
39 2 84 1 100 -1 26 -1 75 0 180 1 17 0 64 -1 106 -1 42 2 81 6 87 4 7 3 12
-2 12 -4 0 -8 16 -7 35 2 29 -3 40 -25 55 -31 22 -35 23 -67 10z m-193 -422
c8 -1 17 -5 20 -8 3 -3 17 -13 32 -23 36 -23 83 -93 95 -145 10 -37 9 -116 0
-162 -6 -32 -43 -96 -67 -119 -95 -89 -234 -83 -319 15 -50 57 -65 104 -63
202 4 174 135 278 302 240z"/>
<path d="M7464 4853 c-20 -15 -27 -86 -10 -109 7 -8 31 -18 54 -21 51 -7 97
18 89 48 -3 10 -1 19 3 19 18 0 -18 64 -40 72 -30 11 -74 7 -96 -9z"/>
<path d="M7009 4781 c-20 -16 -24 -28 -25 -87 -1 -38 -2 -72 -3 -76 -1 -5 -25
-8 -54 -8 -59 0 -82 -16 -89 -60 -6 -41 29 -66 91 -66 28 1 51 -1 52 -4 1 -3
2 -115 3 -250 2 -163 7 -255 15 -274 17 -41 55 -74 94 -81 17 -3 44 -7 59 -9
30 -5 98 13 98 26 0 4 6 8 14 8 19 0 24 20 14 58 -9 32 -9 32 -68 31 -68 -2
-86 11 -86 57 0 16 -3 37 -6 45 -3 9 -2 22 2 29 5 8 6 18 3 23 -7 12 -10 97
-3 97 7 0 4 89 -3 97 -4 3 -2 13 3 22 5 10 5 23 1 29 -4 7 -5 31 -2 54 l6 43
67 0 c79 0 108 18 108 64 0 44 -31 61 -113 61 -54 0 -68 3 -64 13 3 8 1 20 -3
27 -5 8 -4 22 1 31 5 10 5 20 0 23 -4 3 -7 16 -6 29 6 54 -61 85 -106 48z"/>
<path d="M5529 4623 c-80 -21 -189 -92 -189 -123 0 -6 -4 -10 -8 -10 -5 0 -21
-26 -37 -57 -96 -196 -29 -445 147 -542 50 -27 78 -33 173 -36 122 -3 241 40
269 98 13 28 13 34 -2 59 -12 21 -24 28 -49 28 -17 0 -35 -5 -38 -10 -10 -16
-63 -41 -98 -46 -176 -28 -306 78 -308 250 -1 68 7 101 39 157 66 118 251 154
356 71 69 -54 138 29 81 96 -52 63 -220 95 -336 65z"/>
<path d="M6236 4620 c-29 -10 -72 -30 -94 -46 -48 -35 -114 -122 -125 -167 -5
-18 -12 -36 -16 -42 -12 -15 -11 -199 0 -237 6 -18 11 -37 13 -43 7 -30 53
-103 82 -132 45 -44 109 -83 134 -83 11 0 20 -4 20 -8 0 -11 136 -9 175 3 38
11 72 31 112 68 33 31 38 29 45 -18 7 -49 73 -65 111 -27 20 21 21 28 20 352
0 251 -3 337 -13 355 -29 53 -120 34 -120 -26 0 -34 -16 -46 -29 -21 -5 10
-39 33 -74 50 -78 39 -161 46 -241 22z m211 -134 c61 -31 116 -107 127 -176
14 -80 14 -90 8 -90 -4 0 -8 -16 -9 -36 -2 -39 -33 -106 -66 -142 -58 -63
-182 -82 -261 -40 -33 17 -85 77 -102 117 -28 64 -24 238 7 261 3 3 9 14 13
25 10 28 69 75 114 91 47 16 128 12 169 -10z"/>
<path d="M8045 4628 c-22 -5 -47 -11 -55 -15 -8 -3 -17 -7 -20 -8 -65 -23
-145 -98 -184 -174 -35 -69 -38 -79 -41 -181 -3 -125 32 -216 116 -298 36 -36
147 -95 161 -86 4 3 8 1 8 -4 0 -5 42 -8 93 -8 81 2 101 6 157 33 144 70 218
194 215 358 -1 44 -5 89 -8 100 -12 45 -42 111 -59 129 -10 11 -18 23 -18 28
0 16 -102 87 -153 106 -61 23 -155 32 -212 20z m155 -133 c55 -13 125 -91 146
-161 29 -98 18 -174 -37 -257 -57 -87 -183 -123 -280 -80 -96 43 -150 129
-150 239 0 55 10 105 23 121 6 7 7 13 3 13 -11 0 56 80 81 97 59 38 131 48
214 28z"/>
<path d="M8949 4617 c-57 -21 -63 -25 -115 -74 -19 -18 -36 -33 -38 -33 -2 0
-2 10 -2 23 5 54 -40 94 -91 81 -44 -12 -47 -35 -46 -380 1 -310 2 -327 20
-346 23 -23 53 -29 71 -15 6 5 12 6 12 1 0 -5 8 3 17 16 15 22 18 54 19 250 0
137 5 235 12 251 26 64 101 112 182 115 78 3 119 -19 149 -79 23 -47 24 -57
25 -286 1 -211 3 -240 19 -255 26 -26 76 -24 99 5 19 22 19 39 16 289 -4 249
-5 268 -26 314 -41 90 -108 134 -212 140 -39 2 -74 -3 -111 -17z"/>
<path d="M7489 4616 c-33 -24 -36 -52 -34 -366 1 -173 3 -323 4 -332 2 -32 35
-55 70 -50 61 9 62 16 62 369 0 175 -1 323 -2 328 -1 6 -1 13 -1 16 2 13 -33
38 -58 42 -14 3 -33 0 -41 -7z"/>
<path d="M4502 4610 c-12 -5 -26 -20 -31 -32 -9 -24 -7 -477 2 -514 10 -42 49
-107 80 -136 58 -53 129 -75 232 -73 104 3 159 21 213 72 82 79 93 125 94 416
1 224 1 227 -21 251 -27 28 -70 28 -98 1 -15 -15 -17 -46 -18 -254 -1 -218 -3
-240 -21 -277 -32 -60 -82 -84 -172 -81 -68 3 -75 5 -107 38 -31 30 -74 129
-56 129 8 0 6 64 -3 78 -3 6 -2 22 4 37 6 17 7 24 0 20 -6 -4 -7 2 -1 17 5 15
5 31 0 41 -7 11 -6 17 1 17 7 0 8 6 1 18 -5 9 -6 38 -2 64 4 25 4 54 -1 62 -6
10 -5 16 2 16 6 0 8 4 5 10 -3 5 -8 20 -10 32 -5 24 -40 58 -59 57 -6 0 -21
-4 -34 -9z"/>
<path d="M3758 2050 c-91 -35 -153 -91 -205 -188 -36 -68 -49 -216 -27 -303
50 -191 238 -304 444 -267 94 17 210 96 210 143 0 62 -54 74 -122 29 -62 -42
-118 -57 -184 -51 -85 8 -148 44 -187 107 -45 71 -52 132 -14 117 8 -3 18 -3
21 1 9 8 175 9 208 0 15 -3 30 -3 32 0 2 4 61 6 130 6 115 -2 126 0 131 17 4
10 11 19 17 19 19 0 -2 122 -32 185 -39 79 -86 127 -165 166 -82 40 -182 48
-257 19z m221 -141 c56 -31 98 -96 92 -144 -1 -6 -77 -10 -209 -10 -230 1
-224 -1 -190 68 22 45 67 87 111 104 48 19 147 10 196 -18z"/>
<path d="M4568 2065 c-2 -2 -15 -6 -28 -8 -43 -9 -64 -19 -109 -55 -110 -89
-98 -255 24 -324 22 -12 45 -23 50 -25 6 -1 37 -11 69 -23 33 -11 65 -20 73
-20 24 0 112 -49 123 -69 37 -71 -20 -141 -119 -145 -76 -4 -135 19 -196 76
-49 46 -96 52 -120 14 -14 -21 -14 -28 -2 -58 35 -83 174 -147 309 -142 87 3
151 29 209 84 19 18 52 80 43 80 -4 0 -2 6 4 13 13 16 5 93 -15 135 -26 54
-78 88 -187 122 -185 58 -225 91 -205 166 23 84 201 87 287 4 30 -29 71 -29
94 0 27 33 23 49 -25 95 -50 48 -132 78 -219 81 -31 1 -58 1 -60 -1z"/>
<path d="M5300 2056 c-19 -7 -39 -13 -45 -15 -112 -35 -214 -165 -232 -294
-26 -193 43 -338 201 -422 35 -19 66 -31 69 -28 3 3 11 1 18 -3 23 -14 153 -7
207 10 107 36 209 139 237 241 15 54 15 59 16 135 0 215 -153 380 -361 386
-41 1 -91 -3 -110 -10z m182 -133 c89 -34 149 -125 153 -232 4 -119 -46 -210
-140 -257 -48 -23 -64 -26 -115 -21 -75 6 -135 40 -176 99 -50 70 -63 163 -37
253 41 137 185 209 315 158z"/>
<path d="M7038 2043 c-48 -22 -118 -83 -118 -103 0 -5 -5 -10 -11 -10 -6 0
-10 10 -9 23 4 42 0 57 -20 77 -25 25 -61 26 -91 1 l-23 -18 -1 -334 0 -334
27 -27 c20 -18 35 -24 51 -20 20 5 56 37 58 51 0 3 2 103 3 221 3 243 8 263
76 329 47 45 92 57 150 40 53 -16 86 -1 98 43 8 29 6 36 -21 60 -24 22 -38 27
-76 25 -25 -1 -67 -12 -93 -24z"/>
<path d="M7575 2062 c-31 -6 -118 -45 -140 -62 -47 -36 -87 -85 -111 -136 -34
-72 -38 -94 -38 -199 0 -71 6 -104 25 -153 13 -34 27 -62 31 -62 5 0 8 -5 8
-12 0 -25 99 -106 156 -127 56 -22 178 -31 234 -19 59 13 110 32 110 40 0 5 4
7 8 4 10 -6 57 41 64 64 8 25 -19 67 -47 72 -17 4 -38 -2 -58 -17 -50 -33 -89
-43 -159 -41 -74 2 -121 23 -170 74 -69 71 -89 200 -48 306 18 49 89 114 142
132 64 21 164 15 205 -13 56 -38 80 -44 103 -25 27 22 33 58 15 91 -15 30 -84
70 -130 76 -17 2 -30 5 -30 6 0 4 -151 5 -170 1z"/>
<path d="M8298 2059 c-59 -14 -134 -57 -172 -99 -114 -127 -141 -333 -62 -485
42 -82 151 -163 243 -182 50 -10 172 -6 205 7 72 27 121 55 148 87 31 35 32
63 4 94 -21 23 -50 17 -113 -25 -125 -85 -306 -44 -370 83 -11 20 -19 39 -20
44 -1 4 -1 8 -2 10 -8 27 -6 47 4 48 6 0 128 1 271 1 l258 1 18 29 c37 61 -12
212 -95 294 -33 33 -104 76 -145 88 -43 12 -133 15 -172 5z m167 -139 c24 -11
57 -36 74 -57 30 -36 49 -88 37 -101 -7 -6 -370 -10 -398 -4 -10 3 -18 9 -18
14 0 20 40 94 63 115 58 54 164 68 242 33z"/>
<path d="M9023 2050 c-110 -39 -164 -109 -158 -209 4 -68 24 -110 70 -145 38
-30 60 -39 165 -71 174 -53 210 -89 175 -177 -15 -39 -126 -63 -202 -45 -35 9
-80 35 -108 63 -58 58 -118 61 -131 7 -13 -51 48 -120 140 -158 90 -38 219
-38 297 -2 98 47 139 106 139 202 0 100 -73 172 -212 209 -127 35 -168 54
-192 88 -38 53 -3 120 69 134 78 16 143 -1 203 -51 39 -33 72 -37 95 -12 26
30 21 63 -15 98 -84 80 -223 108 -335 69z"/>
<path d="M5953 2028 c-20 -22 -21 -32 -18 -268 1 -147 7 -259 14 -280 42 -130
161 -201 323 -193 153 8 266 104 284 243 3 22 7 396 5 457 -2 54 -80 82 -116
43 -17 -19 -19 -43 -20 -258 -1 -228 -2 -239 -24 -278 -30 -54 -70 -76 -143
-80 -104 -5 -165 39 -184 130 -2 10 -4 120 -4 243 -1 214 -2 224 -23 243 -28
26 -69 25 -94 -2z"/>
</g>
</svg>
