<svg width="239" height="215" viewBox="0 0 239 215" fill="none" xmlns="http://www.w3.org/2000/svg">
<path d="M16.1703 77.0807C16.1703 77.0807 17.741 139.909 16.1703 140.807C17.2923 143.051 16.1703 204.533 16.1703 204.533C16.1703 204.533 4.95091 196.006 3.82895 193.762C2.70699 191.518 2.48263 131.607 3.82896 130.036C2.25824 129.812 2.03382 66.31 3.60453 66.0857C5.17525 65.8613 16.1703 77.0807 16.1703 77.0807Z" fill="#5EB7B7"/>
<path d="M16.1703 140.807C17.741 139.909 16.1703 77.0807 16.1703 77.0807C16.1703 77.0807 5.17525 65.8613 3.60453 66.0857C2.03382 66.31 2.25824 129.812 3.82896 130.036M16.1703 140.807C17.2923 143.051 16.1703 204.533 16.1703 204.533C16.1703 204.533 4.95091 196.006 3.82895 193.762C2.70699 191.518 2.48263 131.607 3.82896 130.036M16.1703 140.807C16.1703 140.807 5.17529 128.466 3.82896 130.036" stroke="black" stroke-width="1.34633"/>
<path d="M15.5843 141.929C17.0932 140.07 15.5474 78.2364 15.5474 78.2364C17.1181 80.2559 81.0687 80.0315 83.0882 78.2364C85.1076 76.4413 85.3318 140.388 83.3126 141.963C83.3315 142.391 84.6492 203.015 83.3126 205.689C81.9662 208.381 17.1181 207.259 15.5474 205.689C15.5474 205.689 16.6693 144.206 15.5474 141.963C15.5572 141.951 15.5695 141.94 15.5843 141.929Z" fill="#96D1C7"/>
<path d="M14.201 77.9749C14.201 77.9749 15.9962 15.3706 14.201 13.5755H81.7418C82.8638 15.595 83.3125 80.4432 81.7418 77.9749C79.7223 79.77 15.7718 79.9944 14.201 77.9749Z" fill="#96D1C7"/>
<path d="M15.5843 141.929C17.0932 140.07 15.5474 78.2364 15.5474 78.2364C17.1181 80.2559 81.0687 80.0315 83.0882 78.2364C85.1076 76.4413 85.3318 140.388 83.3126 141.963M15.5843 141.929C15.5722 141.944 15.5599 141.955 15.5474 141.963M15.5843 141.929C17.941 140.195 83.3126 142.409 83.3126 141.963M15.5843 141.929C15.5695 141.94 15.5572 141.951 15.5474 141.963M15.5474 141.963C16.6693 144.206 15.5474 205.689 15.5474 205.689C17.1181 207.259 81.9662 208.381 83.3126 205.689C84.6492 203.015 83.3315 142.391 83.3126 141.963M83.3126 141.963C83.3126 141.962 83.3125 141.963 83.3126 141.963ZM83.3126 141.963C83.3124 141.959 83.3126 141.959 83.3126 141.963ZM14.201 13.5755C15.9962 15.3706 14.201 77.9749 14.201 77.9749C15.7718 79.9944 79.7223 79.77 81.7418 77.9749C83.3125 80.4432 82.8638 15.595 81.7418 13.5755H14.201Z" stroke="black" stroke-width="1.34633"/>
<path d="M14.8742 13.7999C11.9572 13.7999 2.53288 2.58054 2.53288 2.58054C0.0646143 2.58054 0.96216 65.858 2.53288 67.2043C4.1036 66.9799 14.8742 77.9749 14.8742 77.9749C14.8742 77.9749 16.6693 15.595 14.8742 13.7999Z" fill="#5EB7B7"/>
<path d="M14.8742 13.3512H82.6394C83.5369 12.0048 68.2785 3.0293 66.2591 2.13176C64.2396 1.23422 2.53286 0.112268 2.53286 2.13176C2.53286 2.13176 11.9572 13.3512 14.8742 13.3512Z" fill="#5EB7B7"/>
<path d="M14.8742 13.7999C11.9572 13.7999 2.53288 2.58054 2.53288 2.58054C0.0646143 2.58054 0.96216 65.858 2.53288 67.2043C4.1036 66.9799 14.8742 77.9749 14.8742 77.9749C14.8742 77.9749 16.6693 15.595 14.8742 13.7999Z" stroke="black" stroke-width="1.34633"/>
<path d="M14.8742 13.3512H82.6394C83.5369 12.0048 68.2785 3.0293 66.2591 2.13176C64.2396 1.23422 2.53286 0.112268 2.53286 2.13176C2.53286 2.13176 11.9572 13.3512 14.8742 13.3512Z" stroke="black" stroke-width="1.34633"/>
<path d="M49.7609 65.7733C47.0092 65.7733 44.5633 65.4293 42.4232 64.7414C40.283 64.0535 38.2766 62.8879 36.4039 61.2446C35.3721 60.3273 34.8561 59.3146 34.8561 58.2063C34.8561 57.3273 35.181 56.5629 35.8307 55.9133C36.4804 55.2253 37.2638 54.8814 38.181 54.8814C38.9072 54.8814 39.5569 55.1107 40.1301 55.5693C41.6588 56.8305 43.1493 57.7477 44.6015 58.3209C46.0538 58.8942 47.7736 59.1808 49.7609 59.1808C51.901 59.1808 53.7355 58.7031 55.2642 57.7477C56.8311 56.7922 57.6145 55.6075 57.6145 54.1935C57.6145 52.4737 56.8502 51.1361 55.3215 50.1807C53.7928 49.187 51.366 48.4418 48.0411 47.945C39.6715 46.722 35.4867 42.8238 35.4867 36.2505C35.4867 33.8428 36.1173 31.7599 37.3785 30.002C38.6397 28.2057 40.3594 26.849 42.5378 25.9318C44.7162 24.9764 47.143 24.4987 49.8182 24.4987C52.2259 24.4987 54.4807 24.8617 56.5827 25.5879C58.7228 26.314 60.4999 27.2694 61.914 28.4542C63.0223 29.3331 63.5764 30.3459 63.5764 31.4924C63.5764 32.3714 63.2516 33.1549 62.6019 33.8428C61.9522 34.4925 61.1878 34.8173 60.3088 34.8173C59.7356 34.8173 59.2196 34.6453 58.761 34.3014C57.7674 33.4988 56.3725 32.7727 54.5762 32.123C52.8183 31.4351 51.2322 31.0911 49.8182 31.0911C47.4105 31.0911 45.5379 31.5498 44.2003 32.467C42.9009 33.346 42.2512 34.5116 42.2512 35.9638C42.2512 37.6072 42.92 38.8492 44.2576 39.69C45.6334 40.5308 47.7736 41.2187 50.6781 41.7538C53.9648 42.327 56.5827 43.0723 58.5317 43.9895C60.519 44.8685 62.0095 46.0914 63.0032 47.6583C63.9968 49.187 64.4936 51.2316 64.4936 53.7922C64.4936 56.1999 63.8057 58.3209 62.4299 60.1554C61.0923 61.9516 59.2961 63.3465 57.0413 64.3402C54.7864 65.2956 52.3596 65.7733 49.7609 65.7733Z" fill="black"/>
<path d="M98.4074 47.0543C100.035 47.0543 101.507 47.4731 102.823 48.3108C104.14 49.1246 105.169 50.2735 105.911 51.7574C106.677 53.2414 107.06 54.9168 107.06 56.7837C107.06 58.6506 106.677 60.3261 105.911 61.81C105.169 63.27 104.14 64.4189 102.823 65.2566C101.507 66.0943 100.059 66.5132 98.4792 66.5132C97.2346 66.5132 96.0738 66.2379 94.9967 65.6874C93.9197 65.137 93.0461 64.4668 92.3759 63.6769V71.6472C92.3759 72.1259 92.2083 72.5328 91.8733 72.8679C91.5621 73.203 91.1552 73.3705 90.6526 73.3705C90.1739 73.3705 89.767 73.203 89.4319 72.8679C89.1208 72.5567 88.9652 72.1498 88.9652 71.6472V49.0648C88.9652 48.5622 89.1208 48.1433 89.4319 47.8082C89.7431 47.4731 90.15 47.3056 90.6526 47.3056C91.1552 47.3056 91.5621 47.4731 91.8733 47.8082C92.2083 48.1433 92.3759 48.5622 92.3759 49.0648V50.1059C92.9503 49.2682 93.788 48.5502 94.889 47.9518C95.99 47.3535 97.1628 47.0543 98.4074 47.0543ZM98.0125 63.3538C99.1135 63.3538 100.107 63.0666 100.992 62.4922C101.878 61.9177 102.56 61.1399 103.039 60.1585C103.541 59.1533 103.793 58.0283 103.793 56.7837C103.793 55.5391 103.541 54.4262 103.039 53.4448C102.56 52.4396 101.878 51.6497 100.992 51.0753C100.107 50.5009 99.1135 50.2137 98.0125 50.2137C96.8876 50.2137 95.8823 50.5009 94.9967 51.0753C94.1111 51.6258 93.417 52.4037 92.9144 53.4089C92.4357 54.4142 92.1964 55.5391 92.1964 56.7837C92.1964 58.0283 92.4357 59.1533 92.9144 60.1585C93.417 61.1638 94.1111 61.9536 94.9967 62.5281C95.8823 63.0786 96.8876 63.3538 98.0125 63.3538ZM127.533 56.0657C127.509 56.4965 127.33 56.8675 126.995 57.1787C126.66 57.4659 126.265 57.6095 125.81 57.6095H113.172C113.34 59.3567 113.998 60.7569 115.147 61.81C116.32 62.8632 117.744 63.3897 119.419 63.3897C120.568 63.3897 121.502 63.2222 122.22 62.8871C122.938 62.552 123.572 62.1212 124.123 61.5946C124.482 61.3792 124.829 61.2715 125.164 61.2715C125.571 61.2715 125.906 61.4151 126.169 61.7023C126.456 61.9895 126.6 62.3246 126.6 62.7076C126.6 63.2102 126.36 63.665 125.882 64.0719C125.188 64.766 124.266 65.3524 123.117 65.8311C121.968 66.3098 120.796 66.5491 119.599 66.5491C117.66 66.5491 115.949 66.1422 114.465 65.3284C113.005 64.5146 111.868 63.3777 111.054 61.9177C110.264 60.4577 109.869 58.8062 109.869 56.9632C109.869 54.9527 110.276 53.1935 111.09 51.6856C111.928 50.1538 113.017 48.981 114.357 48.1672C115.721 47.3535 117.182 46.9466 118.737 46.9466C120.269 46.9466 121.705 47.3415 123.046 48.1313C124.386 48.9212 125.463 50.0102 126.277 51.3984C127.09 52.7866 127.509 54.3424 127.533 56.0657ZM118.737 50.1059C117.397 50.1059 116.236 50.4889 115.255 51.2548C114.273 51.9968 113.627 53.1576 113.316 54.7373H123.907V54.4501C123.787 53.1816 123.213 52.1404 122.184 51.3266C121.179 50.5128 120.03 50.1059 118.737 50.1059ZM139.679 46.9466C141.57 46.9466 143.138 47.2457 144.383 47.8441C145.651 48.4425 146.285 49.2084 146.285 50.1418C146.285 50.5487 146.154 50.9197 145.89 51.2548C145.627 51.566 145.292 51.7215 144.885 51.7215C144.574 51.7215 144.323 51.6737 144.131 51.5779C143.964 51.4822 143.724 51.3266 143.413 51.1112C143.27 50.9676 143.042 50.8001 142.731 50.6086C142.444 50.465 142.037 50.3453 141.51 50.2496C140.984 50.1538 140.505 50.1059 140.074 50.1059C138.83 50.1059 137.729 50.3932 136.771 50.9676C135.814 51.542 135.072 52.3438 134.545 53.373C134.019 54.3783 133.756 55.5032 133.756 56.7478C133.756 58.0164 134.007 59.1533 134.509 60.1585C135.036 61.1638 135.766 61.9536 136.7 62.5281C137.633 63.1025 138.698 63.3897 139.895 63.3897C141.139 63.3897 142.145 63.1982 142.911 62.8153C143.078 62.7195 143.306 62.564 143.593 62.3486C143.832 62.1571 144.036 62.0135 144.203 61.9177C144.395 61.822 144.622 61.7741 144.885 61.7741C145.364 61.7741 145.735 61.9297 145.998 62.2409C146.285 62.5281 146.429 62.911 146.429 63.3897C146.429 63.8923 146.106 64.395 145.46 64.8976C144.837 65.3763 143.988 65.7712 142.911 66.0824C141.857 66.3935 140.721 66.5491 139.5 66.5491C137.681 66.5491 136.077 66.1302 134.689 65.2925C133.301 64.4309 132.224 63.2581 131.458 61.7741C130.716 60.2662 130.345 58.5908 130.345 56.7478C130.345 54.9049 130.74 53.2414 131.53 51.7574C132.319 50.2496 133.42 49.0768 134.833 48.239C136.245 47.3774 137.86 46.9466 139.679 46.9466ZM153.167 64.4668C153.167 64.9455 152.999 65.3524 152.664 65.6874C152.353 66.0225 151.946 66.1901 151.443 66.1901C150.965 66.1901 150.558 66.0225 150.223 65.6874C149.912 65.3524 149.756 64.9455 149.756 64.4668V48.9212C149.756 48.4425 149.912 48.0356 150.223 47.7005C150.558 47.3654 150.965 47.1979 151.443 47.1979C151.946 47.1979 152.353 47.3654 152.664 47.7005C152.999 48.0356 153.167 48.4425 153.167 48.9212V64.4668ZM151.443 44.8283C150.749 44.8283 150.247 44.7087 149.936 44.4693C149.648 44.206 149.505 43.7991 149.505 43.2486V42.6742C149.505 42.0998 149.66 41.6929 149.972 41.4535C150.307 41.2142 150.809 41.0945 151.479 41.0945C152.15 41.0945 152.628 41.2262 152.915 41.4894C153.227 41.7288 153.382 42.1237 153.382 42.6742V43.2486C153.382 43.8231 153.227 44.23 152.915 44.4693C152.604 44.7087 152.114 44.8283 151.443 44.8283ZM173.328 47.1261C173.831 47.1261 174.238 47.2936 174.549 47.6287C174.884 47.9399 175.051 48.3587 175.051 48.8853V64.4668C175.051 64.9455 174.884 65.3524 174.549 65.6874C174.238 66.0225 173.831 66.1901 173.328 66.1901C172.825 66.1901 172.419 66.0345 172.107 65.7234C171.796 65.3883 171.641 64.9694 171.641 64.4668V63.5333C171.018 64.371 170.169 65.0891 169.092 65.6874C168.015 66.2619 166.854 66.5491 165.609 66.5491C163.982 66.5491 162.498 66.1302 161.157 65.2925C159.841 64.4548 158.8 63.294 158.034 61.81C157.292 60.3021 156.921 58.6147 156.921 56.7478C156.921 54.8809 157.292 53.2055 158.034 51.7215C158.8 50.2137 159.841 49.0409 161.157 48.2031C162.474 47.3654 163.922 46.9466 165.501 46.9466C166.77 46.9466 167.943 47.2098 169.02 47.7364C170.121 48.263 170.994 48.9331 171.641 49.7469V48.8853C171.641 48.3826 171.796 47.9638 172.107 47.6287C172.419 47.2936 172.825 47.1261 173.328 47.1261ZM166.004 63.3897C167.129 63.3897 168.122 63.1025 168.984 62.5281C169.869 61.9536 170.552 61.1638 171.03 60.1585C171.533 59.1533 171.784 58.0164 171.784 56.7478C171.784 55.5032 171.533 54.3783 171.03 53.373C170.552 52.3678 169.869 51.5779 168.984 51.0035C168.122 50.4051 167.129 50.1059 166.004 50.1059C164.879 50.1059 163.874 50.3932 162.988 50.9676C162.127 51.542 161.444 52.3319 160.942 53.3371C160.463 54.3424 160.224 55.4793 160.224 56.7478C160.224 58.0164 160.463 59.1533 160.942 60.1585C161.444 61.1638 162.127 61.9536 162.988 62.5281C163.874 63.1025 164.879 63.3897 166.004 63.3897ZM183.821 64.4668C183.821 64.9455 183.653 65.3524 183.318 65.6874C182.983 66.0225 182.576 66.1901 182.097 66.1901C181.619 66.1901 181.212 66.0225 180.877 65.6874C180.566 65.3524 180.41 64.9455 180.41 64.4668V41.3458C180.41 40.8671 180.578 40.4603 180.913 40.1252C181.248 39.7901 181.655 39.6225 182.133 39.6225C182.612 39.6225 183.007 39.7901 183.318 40.1252C183.653 40.4603 183.821 40.8671 183.821 41.3458V64.4668Z" fill="black"/>
<path d="M104.224 103.798C104.726 103.798 105.133 103.965 105.444 104.3C105.779 104.611 105.947 105.018 105.947 105.521V128.642C105.947 129.12 105.779 129.527 105.444 129.862C105.133 130.198 104.726 130.365 104.224 130.365C103.721 130.365 103.314 130.209 103.003 129.898C102.692 129.563 102.536 129.144 102.536 128.642V127.636C101.938 128.498 101.088 129.228 99.9871 129.827C98.9101 130.425 97.7492 130.724 96.5046 130.724C94.8771 130.724 93.4051 130.305 92.0887 129.467C90.7723 128.63 89.7311 127.469 88.9652 125.985C88.1993 124.477 87.8163 122.79 87.8163 120.923C87.8163 119.056 88.1873 117.38 88.9293 115.897C89.6952 114.389 90.7364 113.216 92.0528 112.378C93.3692 111.54 94.8172 111.122 96.3969 111.122C97.6655 111.122 98.8383 111.385 99.9153 111.911C100.992 112.438 101.866 113.12 102.536 113.958V105.521C102.536 105.018 102.692 104.611 103.003 104.3C103.314 103.965 103.721 103.798 104.224 103.798ZM96.8995 127.565C98.0245 127.565 99.0178 127.277 99.8794 126.703C100.765 126.129 101.447 125.339 101.926 124.334C102.428 123.328 102.68 122.191 102.68 120.923C102.68 119.678 102.428 118.553 101.926 117.548C101.447 116.519 100.765 115.717 99.8794 115.143C99.0178 114.568 98.0245 114.281 96.8995 114.281C95.7746 114.281 94.7694 114.568 93.8838 115.143C93.0221 115.717 92.34 116.519 91.8374 117.548C91.3587 118.553 91.1193 119.678 91.1193 120.923C91.1193 122.191 91.3587 123.328 91.8374 124.334C92.34 125.339 93.0221 126.129 93.8838 126.703C94.7694 127.277 95.7746 127.565 96.8995 127.565ZM125.581 111.552C126.084 111.552 126.491 111.72 126.802 112.055C127.137 112.39 127.304 112.797 127.304 113.276V122.826C127.304 125.315 126.61 127.254 125.222 128.642C123.858 130.006 121.919 130.688 119.406 130.688C116.917 130.688 114.99 130.006 113.626 128.642C112.261 127.254 111.579 125.315 111.579 122.826V113.276C111.579 112.797 111.735 112.39 112.046 112.055C112.381 111.72 112.788 111.552 113.267 111.552C113.769 111.552 114.176 111.72 114.487 112.055C114.822 112.39 114.99 112.797 114.99 113.276V122.826C114.99 125.961 116.462 127.529 119.406 127.529C120.866 127.529 121.979 127.134 122.745 126.344C123.511 125.554 123.894 124.381 123.894 122.826V113.276C123.894 112.797 124.049 112.39 124.36 112.055C124.696 111.72 125.102 111.552 125.581 111.552ZM140.591 111.122C142.482 111.122 144.05 111.421 145.294 112.019C146.563 112.617 147.197 113.383 147.197 114.317C147.197 114.724 147.065 115.095 146.802 115.43C146.539 115.741 146.204 115.897 145.797 115.897C145.486 115.897 145.234 115.849 145.043 115.753C144.875 115.657 144.636 115.502 144.325 115.286C144.181 115.143 143.954 114.975 143.643 114.784C143.355 114.64 142.949 114.52 142.422 114.425C141.895 114.329 141.417 114.281 140.986 114.281C139.741 114.281 138.64 114.568 137.683 115.143C136.726 115.717 135.984 116.519 135.457 117.548C134.93 118.553 134.667 119.678 134.667 120.923C134.667 122.191 134.918 123.328 135.421 124.334C135.948 125.339 136.678 126.129 137.611 126.703C138.545 127.277 139.61 127.565 140.806 127.565C142.051 127.565 143.056 127.373 143.822 126.99C143.99 126.895 144.217 126.739 144.504 126.524C144.744 126.332 144.947 126.188 145.115 126.093C145.306 125.997 145.533 125.949 145.797 125.949C146.275 125.949 146.646 126.105 146.91 126.416C147.197 126.703 147.341 127.086 147.341 127.565C147.341 128.067 147.017 128.57 146.371 129.073C145.749 129.551 144.899 129.946 143.822 130.257C142.769 130.568 141.632 130.724 140.411 130.724C138.592 130.724 136.989 130.305 135.601 129.467C134.212 128.606 133.135 127.433 132.369 125.949C131.627 124.441 131.256 122.766 131.256 120.923C131.256 119.08 131.651 117.416 132.441 115.932C133.231 114.425 134.332 113.252 135.744 112.414C137.156 111.552 138.772 111.122 140.591 111.122ZM166.106 111.301C166.608 111.301 167.015 111.469 167.326 111.804C167.661 112.115 167.829 112.534 167.829 113.06V128.642C167.829 129.12 167.661 129.527 167.326 129.862C167.015 130.198 166.608 130.365 166.106 130.365C165.603 130.365 165.196 130.209 164.885 129.898C164.574 129.563 164.418 129.144 164.418 128.642V127.708C163.796 128.546 162.946 129.264 161.869 129.862C160.792 130.437 159.631 130.724 158.387 130.724C156.759 130.724 155.275 130.305 153.935 129.467C152.618 128.63 151.577 127.469 150.811 125.985C150.069 124.477 149.698 122.79 149.698 120.923C149.698 119.056 150.069 117.38 150.811 115.897C151.577 114.389 152.618 113.216 153.935 112.378C155.251 111.54 156.699 111.122 158.279 111.122C159.547 111.122 160.72 111.385 161.797 111.911C162.898 112.438 163.772 113.108 164.418 113.922V113.06C164.418 112.558 164.574 112.139 164.885 111.804C165.196 111.469 165.603 111.301 166.106 111.301ZM158.782 127.565C159.906 127.565 160.9 127.277 161.761 126.703C162.647 126.129 163.329 125.339 163.808 124.334C164.31 123.328 164.562 122.191 164.562 120.923C164.562 119.678 164.31 118.553 163.808 117.548C163.329 116.543 162.647 115.753 161.761 115.178C160.9 114.58 159.906 114.281 158.782 114.281C157.657 114.281 156.651 114.568 155.766 115.143C154.904 115.717 154.222 116.507 153.719 117.512C153.241 118.517 153.001 119.654 153.001 120.923C153.001 122.191 153.241 123.328 153.719 124.334C154.222 125.339 154.904 126.129 155.766 126.703C156.651 127.277 157.657 127.565 158.782 127.565ZM177.998 114.891V125.59C177.998 126.787 178.537 127.385 179.614 127.385C179.782 127.385 180.009 127.349 180.296 127.277C180.583 127.182 180.811 127.134 180.978 127.134C181.289 127.134 181.553 127.266 181.768 127.529C181.984 127.792 182.091 128.127 182.091 128.534C182.091 129.037 181.804 129.467 181.23 129.827C180.655 130.186 180.009 130.365 179.291 130.365C178.501 130.365 177.771 130.281 177.101 130.114C176.455 129.946 175.868 129.527 175.342 128.857C174.839 128.163 174.588 127.122 174.588 125.734V114.891H172.505C172.051 114.891 171.668 114.748 171.357 114.46C171.069 114.149 170.926 113.766 170.926 113.312C170.926 112.857 171.069 112.486 171.357 112.199C171.668 111.911 172.051 111.768 172.505 111.768H174.588V108.752C174.588 108.273 174.743 107.866 175.054 107.531C175.39 107.196 175.808 107.029 176.311 107.029C176.79 107.029 177.185 107.196 177.496 107.531C177.831 107.866 177.998 108.273 177.998 108.752V111.768H180.978C181.433 111.768 181.804 111.923 182.091 112.235C182.402 112.522 182.558 112.893 182.558 113.347C182.558 113.802 182.402 114.173 182.091 114.46C181.804 114.748 181.433 114.891 180.978 114.891H177.998ZM189.77 128.642C189.77 129.12 189.603 129.527 189.267 129.862C188.956 130.198 188.549 130.365 188.047 130.365C187.568 130.365 187.161 130.198 186.826 129.862C186.515 129.527 186.359 129.12 186.359 128.642V113.096C186.359 112.617 186.515 112.211 186.826 111.875C187.161 111.54 187.568 111.373 188.047 111.373C188.549 111.373 188.956 111.54 189.267 111.875C189.603 112.211 189.77 112.617 189.77 113.096V128.642ZM188.047 109.003C187.353 109.003 186.85 108.884 186.539 108.644C186.252 108.381 186.108 107.974 186.108 107.424V106.849C186.108 106.275 186.264 105.868 186.575 105.629C186.91 105.389 187.413 105.269 188.083 105.269C188.753 105.269 189.232 105.401 189.519 105.664C189.83 105.904 189.986 106.299 189.986 106.849V107.424C189.986 107.998 189.83 108.405 189.519 108.644C189.208 108.884 188.717 109.003 188.047 109.003ZM212.48 120.959C212.48 122.826 212.062 124.501 211.224 125.985C210.386 127.469 209.237 128.63 207.777 129.467C206.341 130.305 204.749 130.724 203.002 130.724C201.255 130.724 199.651 130.305 198.191 129.467C196.755 128.63 195.618 127.469 194.781 125.985C193.943 124.501 193.524 122.826 193.524 120.959C193.524 119.092 193.943 117.404 194.781 115.897C195.618 114.389 196.755 113.216 198.191 112.378C199.651 111.54 201.255 111.122 203.002 111.122C204.749 111.122 206.341 111.54 207.777 112.378C209.237 113.216 210.386 114.389 211.224 115.897C212.062 117.404 212.48 119.092 212.48 120.959ZM209.07 120.959C209.07 119.666 208.794 118.517 208.244 117.512C207.717 116.483 206.987 115.693 206.054 115.143C205.144 114.568 204.127 114.281 203.002 114.281C201.877 114.281 200.848 114.568 199.915 115.143C199.005 115.693 198.275 116.483 197.725 117.512C197.198 118.517 196.935 119.666 196.935 120.959C196.935 122.227 197.198 123.364 197.725 124.369C198.275 125.375 199.005 126.165 199.915 126.739C200.848 127.289 201.877 127.565 203.002 127.565C204.127 127.565 205.144 127.289 206.054 126.739C206.987 126.165 207.717 125.375 208.244 124.369C208.794 123.364 209.07 122.227 209.07 120.959ZM226.031 111.122C230.34 111.122 232.494 113.706 232.494 118.876V128.642C232.494 129.12 232.326 129.527 231.991 129.862C231.68 130.198 231.273 130.365 230.771 130.365C230.292 130.365 229.885 130.198 229.55 129.862C229.239 129.527 229.083 129.12 229.083 128.642V118.912C229.083 117.5 228.76 116.375 228.114 115.537C227.468 114.7 226.414 114.281 224.954 114.281C223.997 114.281 223.123 114.496 222.334 114.927C221.568 115.334 220.957 115.897 220.503 116.615C220.072 117.309 219.856 118.075 219.856 118.912V128.642C219.856 129.12 219.689 129.527 219.354 129.862C219.043 130.198 218.636 130.365 218.133 130.365C217.63 130.365 217.223 130.209 216.912 129.898C216.601 129.563 216.446 129.144 216.446 128.642V113.276C216.446 112.797 216.601 112.39 216.912 112.055C217.247 111.72 217.654 111.552 218.133 111.552C218.636 111.552 219.043 111.72 219.354 112.055C219.689 112.39 219.856 112.797 219.856 113.276V114.532C220.479 113.575 221.34 112.773 222.441 112.127C223.566 111.457 224.763 111.122 226.031 111.122Z" fill="black"/>
<path d="M105.48 184.416C105.456 184.846 105.277 185.217 104.942 185.529C104.607 185.816 104.212 185.959 103.757 185.959H91.1193C91.2869 187.707 91.9451 189.107 93.0939 190.16C94.2667 191.213 95.6908 191.74 97.3663 191.74C98.5151 191.74 99.4486 191.572 100.167 191.237C100.885 190.902 101.519 190.471 102.069 189.945C102.428 189.729 102.776 189.621 103.111 189.621C103.517 189.621 103.853 189.765 104.116 190.052C104.403 190.339 104.547 190.675 104.547 191.058C104.547 191.56 104.307 192.015 103.829 192.422C103.135 193.116 102.213 193.702 101.064 194.181C99.9153 194.66 98.7425 194.899 97.5458 194.899C95.6071 194.899 93.8957 194.492 92.4118 193.678C90.9518 192.865 89.8149 191.728 89.0011 190.268C88.2112 188.808 87.8163 187.156 87.8163 185.313C87.8163 183.303 88.2232 181.543 89.037 180.036C89.8747 178.504 90.9637 177.331 92.3041 176.517C93.6684 175.703 95.1284 175.296 96.6841 175.296C98.216 175.296 99.652 175.691 100.992 176.481C102.333 177.271 103.41 178.36 104.224 179.748C105.037 181.137 105.456 182.692 105.48 184.416ZM96.6841 178.456C95.3438 178.456 94.183 178.839 93.2016 179.605C92.2203 180.347 91.5741 181.508 91.2629 183.087H101.854V182.8C101.734 181.531 101.16 180.49 100.131 179.677C99.1255 178.863 97.9766 178.456 96.6841 178.456ZM108.364 191.596C108.148 191.261 108.04 190.938 108.04 190.627C108.04 190.148 108.292 189.741 108.794 189.406C109.034 189.238 109.309 189.155 109.62 189.155C110.051 189.155 110.446 189.334 110.805 189.693C111.523 190.507 112.289 191.117 113.103 191.524C113.94 191.931 114.934 192.135 116.082 192.135C116.992 192.111 117.794 191.907 118.488 191.524C119.182 191.117 119.529 190.471 119.529 189.586C119.529 188.772 119.17 188.149 118.452 187.719C117.758 187.288 116.729 186.893 115.364 186.534C114.024 186.175 112.911 185.804 112.026 185.421C111.14 185.014 110.386 184.44 109.764 183.698C109.165 182.932 108.866 181.938 108.866 180.718C108.866 179.641 109.165 178.695 109.764 177.881C110.386 177.068 111.2 176.433 112.205 175.979C113.234 175.524 114.347 175.296 115.544 175.296C116.693 175.296 117.83 175.512 118.955 175.943C120.104 176.374 121.037 177.032 121.755 177.917C122.042 178.252 122.186 178.599 122.186 178.959C122.186 179.341 121.994 179.712 121.611 180.071C121.372 180.287 121.073 180.395 120.714 180.395C120.283 180.395 119.936 180.251 119.673 179.964C119.17 179.389 118.548 178.947 117.806 178.635C117.088 178.324 116.286 178.169 115.4 178.169C114.491 178.169 113.713 178.36 113.067 178.743C112.444 179.102 112.133 179.724 112.133 180.61C112.157 181.448 112.516 182.07 113.21 182.477C113.928 182.884 115.017 183.279 116.477 183.662C117.746 183.997 118.799 184.356 119.637 184.739C120.474 185.122 121.181 185.696 121.755 186.462C122.329 187.204 122.617 188.185 122.617 189.406C122.617 190.531 122.294 191.512 121.647 192.35C121.001 193.164 120.151 193.798 119.098 194.253C118.069 194.684 116.968 194.899 115.795 194.899C114.287 194.899 112.887 194.636 111.595 194.109C110.326 193.583 109.249 192.745 108.364 191.596ZM144.358 185.134C144.358 187.001 143.939 188.676 143.101 190.16C142.263 191.644 141.114 192.805 139.654 193.642C138.218 194.48 136.627 194.899 134.879 194.899C133.132 194.899 131.529 194.48 130.069 193.642C128.632 192.805 127.496 191.644 126.658 190.16C125.82 188.676 125.401 187.001 125.401 185.134C125.401 183.267 125.82 181.579 126.658 180.071C127.496 178.564 128.632 177.391 130.069 176.553C131.529 175.715 133.132 175.296 134.879 175.296C136.627 175.296 138.218 175.715 139.654 176.553C141.114 177.391 142.263 178.564 143.101 180.071C143.939 181.579 144.358 183.267 144.358 185.134ZM140.947 185.134C140.947 183.841 140.672 182.692 140.121 181.687C139.595 180.658 138.865 179.868 137.931 179.318C137.022 178.743 136.004 178.456 134.879 178.456C133.755 178.456 132.725 178.743 131.792 179.318C130.882 179.868 130.152 180.658 129.602 181.687C129.075 182.692 128.812 183.841 128.812 185.134C128.812 186.402 129.075 187.539 129.602 188.544C130.152 189.55 130.882 190.339 131.792 190.914C132.725 191.464 133.755 191.74 134.879 191.74C136.004 191.74 137.022 191.464 137.931 190.914C138.865 190.339 139.595 189.55 140.121 188.544C140.672 187.539 140.947 186.402 140.947 185.134ZM162.325 175.727C162.827 175.727 163.234 175.895 163.545 176.23C163.88 176.565 164.048 176.972 164.048 177.451V187.001C164.048 189.49 163.354 191.428 161.966 192.817C160.601 194.181 158.663 194.863 156.149 194.863C153.66 194.863 151.734 194.181 150.369 192.817C149.005 191.428 148.323 189.49 148.323 187.001V177.451C148.323 176.972 148.478 176.565 148.79 176.23C149.125 175.895 149.532 175.727 150.01 175.727C150.513 175.727 150.92 175.895 151.231 176.23C151.566 176.565 151.734 176.972 151.734 177.451V187.001C151.734 190.136 153.205 191.704 156.149 191.704C157.609 191.704 158.722 191.309 159.488 190.519C160.254 189.729 160.637 188.556 160.637 187.001V177.451C160.637 176.972 160.793 176.565 161.104 176.23C161.439 175.895 161.846 175.727 162.325 175.727ZM178.519 175.296C179.142 175.296 179.68 175.464 180.135 175.799C180.59 176.11 180.817 176.505 180.817 176.984C180.817 177.558 180.661 178.001 180.35 178.312C180.063 178.599 179.704 178.743 179.273 178.743C179.058 178.743 178.735 178.671 178.304 178.528C177.801 178.36 177.406 178.276 177.119 178.276C176.377 178.276 175.647 178.54 174.929 179.066C174.235 179.569 173.661 180.275 173.206 181.184C172.775 182.07 172.56 183.063 172.56 184.164V192.817C172.56 193.295 172.392 193.702 172.057 194.037C171.746 194.372 171.339 194.54 170.836 194.54C170.334 194.54 169.927 194.384 169.616 194.073C169.304 193.738 169.149 193.319 169.149 192.817V177.451C169.149 176.972 169.304 176.565 169.616 176.23C169.951 175.895 170.358 175.727 170.836 175.727C171.339 175.727 171.746 175.895 172.057 176.23C172.392 176.565 172.56 176.972 172.56 177.451V179.282C173.086 178.109 173.876 177.163 174.929 176.445C175.982 175.703 177.179 175.32 178.519 175.296ZM191.359 175.296C193.25 175.296 194.817 175.596 196.062 176.194C197.33 176.792 197.965 177.558 197.965 178.492C197.965 178.899 197.833 179.27 197.57 179.605C197.307 179.916 196.971 180.071 196.565 180.071C196.253 180.071 196.002 180.024 195.811 179.928C195.643 179.832 195.404 179.677 195.093 179.461C194.949 179.318 194.722 179.15 194.41 178.959C194.123 178.815 193.716 178.695 193.19 178.599C192.663 178.504 192.185 178.456 191.754 178.456C190.509 178.456 189.408 178.743 188.451 179.318C187.493 179.892 186.751 180.694 186.225 181.723C185.698 182.728 185.435 183.853 185.435 185.098C185.435 186.366 185.686 187.503 186.189 188.508C186.715 189.514 187.445 190.304 188.379 190.878C189.312 191.452 190.377 191.74 191.574 191.74C192.819 191.74 193.824 191.548 194.59 191.165C194.757 191.069 194.985 190.914 195.272 190.698C195.511 190.507 195.715 190.363 195.882 190.268C196.074 190.172 196.301 190.124 196.565 190.124C197.043 190.124 197.414 190.28 197.678 190.591C197.965 190.878 198.108 191.261 198.108 191.74C198.108 192.242 197.785 192.745 197.139 193.248C196.517 193.726 195.667 194.121 194.59 194.432C193.537 194.743 192.4 194.899 191.179 194.899C189.36 194.899 187.757 194.48 186.368 193.642C184.98 192.781 183.903 191.608 183.137 190.124C182.395 188.616 182.024 186.941 182.024 185.098C182.024 183.255 182.419 181.591 183.209 180.107C183.999 178.599 185.1 177.427 186.512 176.589C187.924 175.727 189.54 175.296 191.359 175.296ZM218.13 184.416C218.106 184.846 217.926 185.217 217.591 185.529C217.256 185.816 216.861 185.959 216.407 185.959H203.769C203.937 187.707 204.595 189.107 205.744 190.16C206.917 191.213 208.341 191.74 210.016 191.74C211.165 191.74 212.098 191.572 212.816 191.237C213.534 190.902 214.169 190.471 214.719 189.945C215.078 189.729 215.425 189.621 215.76 189.621C216.167 189.621 216.502 189.765 216.766 190.052C217.053 190.339 217.196 190.675 217.196 191.058C217.196 191.56 216.957 192.015 216.478 192.422C215.784 193.116 214.863 193.702 213.714 194.181C212.565 194.66 211.392 194.899 210.196 194.899C208.257 194.899 206.546 194.492 205.062 193.678C203.602 192.865 202.465 191.728 201.651 190.268C200.861 188.808 200.466 187.156 200.466 185.313C200.466 183.303 200.873 181.543 201.687 180.036C202.524 178.504 203.614 177.331 204.954 176.517C206.318 175.703 207.778 175.296 209.334 175.296C210.866 175.296 212.302 175.691 213.642 176.481C214.983 177.271 216.06 178.36 216.873 179.748C217.687 181.137 218.106 182.692 218.13 184.416ZM209.334 178.456C207.994 178.456 206.833 178.839 205.851 179.605C204.87 180.347 204.224 181.508 203.913 183.087H214.504V182.8C214.384 181.531 213.81 180.49 212.781 179.677C211.775 178.863 210.626 178.456 209.334 178.456ZM221.013 191.596C220.798 191.261 220.69 190.938 220.69 190.627C220.69 190.148 220.942 189.741 221.444 189.406C221.683 189.238 221.959 189.155 222.27 189.155C222.701 189.155 223.096 189.334 223.455 189.693C224.173 190.507 224.939 191.117 225.752 191.524C226.59 191.931 227.583 192.135 228.732 192.135C229.642 192.111 230.444 191.907 231.138 191.524C231.832 191.117 232.179 190.471 232.179 189.586C232.179 188.772 231.82 188.149 231.102 187.719C230.408 187.288 229.378 186.893 228.014 186.534C226.674 186.175 225.561 185.804 224.675 185.421C223.79 185.014 223.036 184.44 222.413 183.698C221.815 182.932 221.516 181.938 221.516 180.718C221.516 179.641 221.815 178.695 222.413 177.881C223.036 177.068 223.85 176.433 224.855 175.979C225.884 175.524 226.997 175.296 228.194 175.296C229.343 175.296 230.479 175.512 231.604 175.943C232.753 176.374 233.687 177.032 234.405 177.917C234.692 178.252 234.836 178.599 234.836 178.959C234.836 179.341 234.644 179.712 234.261 180.071C234.022 180.287 233.723 180.395 233.364 180.395C232.933 180.395 232.586 180.251 232.322 179.964C231.82 179.389 231.198 178.947 230.456 178.635C229.738 178.324 228.936 178.169 228.05 178.169C227.141 178.169 226.363 178.36 225.716 178.743C225.094 179.102 224.783 179.724 224.783 180.61C224.807 181.448 225.166 182.07 225.86 182.477C226.578 182.884 227.667 183.279 229.127 183.662C230.396 183.997 231.449 184.356 232.287 184.739C233.124 185.122 233.83 185.696 234.405 186.462C234.979 187.204 235.266 188.185 235.266 189.406C235.266 190.531 234.943 191.512 234.297 192.35C233.651 193.164 232.801 193.798 231.748 194.253C230.719 194.684 229.618 194.899 228.445 194.899C226.937 194.899 225.537 194.636 224.244 194.109C222.976 193.583 221.899 192.745 221.013 191.596Z" fill="black"/>
<path d="M59.5636 122.783C60.5572 122.783 61.3789 123.127 62.0286 123.814C62.7165 124.464 63.0605 125.228 63.0605 126.107C63.0605 127.063 62.7165 127.846 62.0286 128.458C61.3789 129.069 60.5572 129.375 59.5636 129.375H40.3594C39.3658 129.375 38.525 129.05 37.8371 128.4C37.1874 127.713 36.8626 126.872 36.8626 125.878V92.7438C36.8626 91.7501 37.1874 90.9285 37.8371 90.2788C38.525 89.5909 39.3658 89.2469 40.3594 89.2469H59.5636C60.5572 89.2469 61.3789 89.5718 62.0286 90.2215C62.7165 90.8329 63.0605 91.6355 63.0605 92.6291C63.0605 93.5846 62.7356 94.368 62.0859 94.9795C61.4362 95.5528 60.5955 95.8394 59.5636 95.8394H44.0283V105.585H56.9839C57.9776 105.585 58.7993 105.91 59.4489 106.559C60.1369 107.171 60.4808 107.973 60.4808 108.967C60.4808 109.922 60.156 110.706 59.5063 111.317C58.8566 111.891 58.0158 112.177 56.9839 112.177H44.0283V122.783H59.5636Z" fill="black"/>
<path d="M66.988 189.278C67.4848 189.584 67.867 189.985 68.1345 190.482C68.4403 190.979 68.5931 191.495 68.5931 192.03C68.5931 192.718 68.3638 193.349 67.9052 193.922C67.332 194.61 66.453 194.954 65.2682 194.954C64.351 194.954 63.5103 194.743 62.7459 194.323C59.9943 192.756 58.6184 189.565 58.6184 184.75C58.6184 183.374 58.1598 182.285 57.2426 181.482C56.3636 180.679 55.0834 180.278 53.4018 180.278H42.6819V191.399C42.6819 192.431 42.3952 193.272 41.822 193.922C41.2869 194.571 40.5608 194.896 39.6436 194.896C38.5353 194.896 37.5607 194.571 36.72 193.922C35.9174 193.234 35.5161 192.393 35.5161 191.399V158.265C35.5161 157.271 35.841 156.45 36.4907 155.8C37.1786 155.112 38.0193 154.768 39.013 154.768H55.5228C57.5101 154.768 59.3828 155.303 61.1408 156.373C62.8988 157.443 64.2937 158.915 65.3256 160.787C66.3957 162.66 66.9307 164.762 66.9307 167.093C66.9307 169.004 66.4148 170.877 65.3829 172.711C64.351 174.507 63.0134 175.941 61.3701 177.011C63.7778 178.692 65.0963 180.947 65.3256 183.775C65.4402 184.387 65.4976 184.979 65.4976 185.552C65.6504 186.737 65.8033 187.597 65.9562 188.132C66.109 188.629 66.453 189.011 66.988 189.278ZM55.2362 174.374C55.9241 174.374 56.5929 174.049 57.2426 173.399C57.8923 172.749 58.4274 171.89 58.8477 170.819C59.2681 169.711 59.4783 168.526 59.4783 167.265C59.4783 166.195 59.2681 165.221 58.8477 164.342C58.4274 163.424 57.8923 162.698 57.2426 162.163C56.5929 161.628 55.9241 161.361 55.2362 161.361H42.6819V174.374H55.2362Z" fill="black"/>
</svg>
