<svg width="133" height="152" viewBox="0 0 133 152" fill="none" xmlns="http://www.w3.org/2000/svg">
<path d="M66.2417 3.74043C72.6823 3.51765 132.808 34.4174 130.096 36.8699C132.599 39.215 130.096 108.472 130.096 112.747C130.096 117.022 71.065 152.271 66.2417 149.884C66.2417 149.884 7.23639 122.651 4.52471 117.022C1.81304 111.393 0.561496 43.1782 4.52471 36.8699C4.52471 31.9143 59.8012 3.96321 66.2417 3.74043Z" fill="#96D1C7"/>
<path d="M4.52471 36.8699C4.52471 36.8699 60.4269 77.664 66.2417 74.2582M4.52471 36.8699C4.52471 31.9143 59.8012 3.96321 66.2417 3.74043C72.6823 3.51765 132.808 34.4174 130.096 36.8699M4.52471 36.8699C0.561496 43.1782 1.81304 111.393 4.52471 117.022C7.23639 122.651 66.2417 149.884 66.2417 149.884M66.2417 74.2582C73.3595 76.4124 130.096 36.8699 130.096 36.8699M66.2417 74.2582V149.884M130.096 36.8699C132.599 39.215 130.096 108.472 130.096 112.747C130.096 117.022 71.065 152.271 66.2417 149.884" stroke="black" stroke-width="2.67173"/>
<path d="M130.096 36.7449C130.096 36.7449 73.3595 76.2874 66.2417 74.1332V149.759C71.065 152.146 130.096 116.897 130.096 112.622C130.096 108.347 132.599 39.09 130.096 36.7449Z" fill="#96D1C7" stroke="black" stroke-width="2.67173"/>
<path d="M66.2417 74.1332C60.4269 77.539 4.52466 36.7449 4.52466 36.7449C4.52466 31.7893 59.8011 3.83821 66.2417 3.61543C72.6822 3.39265 132.808 34.2924 130.096 36.7449C130.096 36.7449 73.3595 76.2874 66.2417 74.1332Z" fill="#5EB7B7" stroke="black" stroke-width="2.67173"/>
<path d="M65.654 58.5771C62.884 58.5771 60.4217 58.2308 58.2672 57.5383C56.1127 56.8458 54.0929 55.6724 52.2077 54.0181C51.1689 53.0947 50.6496 52.0752 50.6496 50.9595C50.6496 50.0746 50.9766 49.3051 51.6306 48.6511C52.2847 47.9586 53.0734 47.6123 53.9967 47.6123C54.7277 47.6123 55.3817 47.8431 55.9588 48.3048C57.4977 49.5744 58.9982 50.4978 60.4602 51.0749C61.9221 51.652 63.6534 51.9405 65.654 51.9405C67.8085 51.9405 69.6552 51.4596 71.1941 50.4978C72.7715 49.536 73.5602 48.3433 73.5602 46.9198C73.5602 45.1885 72.7907 43.842 71.2518 42.8801C69.7129 41.8798 67.2699 41.1296 63.9227 40.6295C55.4972 39.3983 51.2844 35.4741 51.2844 28.8567C51.2844 26.433 51.9192 24.3362 53.1888 22.5664C54.4584 20.7582 56.1897 19.3924 58.3826 18.469C60.5756 17.5072 63.0186 17.0263 65.7117 17.0263C68.1355 17.0263 70.4054 17.3918 72.5214 18.1228C74.6759 18.8538 76.4649 19.8156 77.8884 21.0083C79.0041 21.8931 79.562 22.9127 79.562 24.0669C79.562 24.9517 79.235 25.7404 78.5809 26.4329C77.9269 27.087 77.1574 27.414 76.2725 27.414C75.6954 27.414 75.1761 27.2409 74.7144 26.8946C73.7141 26.0867 72.3098 25.3557 70.5016 24.7017C68.7318 24.0092 67.1352 23.6629 65.7117 23.6629C63.2879 23.6629 61.4028 24.1246 60.0562 25.0479C58.7481 25.9328 58.0941 27.1062 58.0941 28.5682C58.0941 30.2225 58.7674 31.4729 60.1139 32.3193C61.4989 33.1657 63.6534 33.8582 66.5774 34.3969C69.886 34.9739 72.5214 35.7242 74.4836 36.6475C76.4841 37.5324 77.9846 38.7635 78.9849 40.3409C79.9852 41.8798 80.4853 43.9381 80.4853 46.5158C80.4853 48.9396 79.7928 51.0749 78.4078 52.9216C77.0612 54.7298 75.253 56.1341 72.9831 57.1344C70.7132 58.0962 68.2702 58.5771 65.654 58.5771Z" fill="black"/>
<path d="M41.3241 109.073C42.3244 109.073 43.1515 109.419 43.8056 110.112C44.4981 110.766 44.8444 111.535 44.8444 112.42C44.8444 113.382 44.4981 114.17 43.8056 114.786C43.1515 115.402 42.3244 115.709 41.3241 115.709H21.9914C20.9911 115.709 20.1447 115.382 19.4522 114.728C18.7982 114.036 18.4712 113.189 18.4712 112.189V78.8331C18.4712 77.8328 18.7982 77.0056 19.4522 76.3516C20.1447 75.6591 20.9911 75.3128 21.9914 75.3128H41.3241C42.3244 75.3128 43.1515 75.6398 43.8056 76.2939C44.4981 76.9094 44.8444 77.7174 44.8444 78.7177C44.8444 79.6795 44.5173 80.4682 43.8633 81.0838C43.2093 81.6608 42.3628 81.9494 41.3241 81.9494H25.6848V91.76H38.7272C39.7275 91.76 40.5546 92.087 41.2087 92.7411C41.9012 93.3566 42.2474 94.1646 42.2474 95.1649C42.2474 96.1267 41.9204 96.9154 41.2664 97.5309C40.6123 98.108 39.7659 98.3966 38.7272 98.3966H25.6848V109.073H41.3241Z" fill="black"/>
<path d="M115.878 110.054C116.378 110.362 116.763 110.766 117.032 111.266C117.34 111.766 117.494 112.285 117.494 112.824C117.494 113.516 117.263 114.151 116.802 114.728C116.224 115.421 115.34 115.767 114.147 115.767C113.224 115.767 112.377 115.556 111.608 115.132C108.838 113.555 107.453 110.342 107.453 105.495C107.453 104.11 106.991 103.013 106.068 102.205C105.183 101.397 103.894 100.994 102.201 100.994H91.4094V112.189C91.4094 113.228 91.1209 114.074 90.5438 114.728C90.0052 115.382 89.2742 115.709 88.3508 115.709C87.2351 115.709 86.2541 115.382 85.4077 114.728C84.5997 114.036 84.1958 113.189 84.1958 112.189V78.8331C84.1958 77.8328 84.5228 77.0056 85.1768 76.3516C85.8693 75.6591 86.7157 75.3128 87.716 75.3128H104.336C106.337 75.3128 108.222 75.8514 109.992 76.9287C111.762 78.0059 113.166 79.4871 114.205 81.3723C115.282 83.2575 115.821 85.3735 115.821 87.7203C115.821 89.644 115.301 91.5292 114.262 93.3759C113.224 95.1841 111.877 96.6268 110.223 97.7041C112.647 99.3969 113.974 101.667 114.205 104.514C114.32 105.129 114.378 105.726 114.378 106.303C114.532 107.495 114.686 108.361 114.839 108.9C114.993 109.4 115.34 109.785 115.878 110.054ZM104.048 95.0494C104.74 95.0494 105.414 94.7224 106.068 94.0684C106.722 93.4143 107.26 92.5487 107.683 91.4715C108.107 90.3557 108.318 89.1631 108.318 87.8935C108.318 86.8162 108.107 85.8352 107.683 84.9503C107.26 84.0269 106.722 83.2959 106.068 82.7573C105.414 82.2187 104.74 81.9494 104.048 81.9494H91.4094V95.0494H104.048Z" fill="black"/>
</svg>
